<svg xmlns="http://www.w3.org/2000/svg" xmlns:xlink="http://www.w3.org/1999/xlink" width="2048.00" zoomAndPan="magnify" viewBox="0 0 375 374.999991" height="2048.00" preserveAspectRatio="xMidYMid meet" version="1.0"><defs><clipPath id="27f691b313"><path d="M 112.5 117 L 211 117 L 211 215.515625 L 112.5 215.515625 Z M 112.5 117 " clip-rule="nonzero"/></clipPath><clipPath id="777cfc2fe1"><path d="M 164 116 L 262.5 116 L 262.5 215.515625 L 164 215.515625 Z M 164 116 " clip-rule="nonzero"/></clipPath></defs><g clip-path="url(#27f691b313)"><path fill="#ffffff" d="M 112.574219 215.707031 L 112.574219 132.652344 C 112.574219 118.027344 131.121094 111.726562 140.03125 123.324219 L 210.996094 215.707031 L 174.644531 215.707031 L 144.496094 178.023438 L 144.496094 215.707031 L 112.574219 215.707031 " fill-opacity="1" fill-rule="nonzero"/></g><g clip-path="url(#777cfc2fe1)"><path fill="#ffffff" d="M 164.003906 131.800781 C 164.003906 135.175781 165.140625 138.453125 167.230469 141.105469 L 226.074219 215.707031 L 262.425781 215.707031 L 190.941406 122.648438 C 182.199219 111.269531 164.003906 117.449219 164.003906 131.800781 " fill-opacity="1" fill-rule="nonzero"/></g></svg>